<svg width="116" height="19" viewBox="0 0 116 19" fill="none" xmlns="http://www.w3.org/2000/svg">
<path d="M0.23125 9.2C0.23125 7.46667 0.60625 5.925 1.35625 4.575C2.10625 3.20833 3.14792 2.15 4.48125 1.4C5.83125 0.633332 7.35625 0.249999 9.05625 0.249999C11.1396 0.249999 12.9229 0.799999 14.4063 1.9C15.8896 3 16.8813 4.5 17.3813 6.4H12.6813C12.3313 5.66667 11.8313 5.10833 11.1813 4.725C10.5479 4.34167 9.82292 4.15 9.00625 4.15C7.68958 4.15 6.62292 4.60833 5.80625 5.525C4.98958 6.44167 4.58125 7.66667 4.58125 9.2C4.58125 10.7333 4.98958 11.9583 5.80625 12.875C6.62292 13.7917 7.68958 14.25 9.00625 14.25C9.82292 14.25 10.5479 14.0583 11.1813 13.675C11.8313 13.2917 12.3313 12.7333 12.6813 12H17.3813C16.8813 13.9 15.8896 15.4 14.4063 16.5C12.9229 17.5833 11.1396 18.125 9.05625 18.125C7.35625 18.125 5.83125 17.75 4.48125 17C3.14792 16.2333 2.10625 15.175 1.35625 13.825C0.60625 12.475 0.23125 10.9333 0.23125 9.2ZM28.2992 18.175C26.6492 18.175 25.1326 17.7917 23.7492 17.025C22.3826 16.2583 21.2909 15.1917 20.4742 13.825C19.6742 12.4417 19.2742 10.8917 19.2742 9.175C19.2742 7.45833 19.6742 5.91667 20.4742 4.55C21.2909 3.18333 22.3826 2.11667 23.7492 1.35C25.1326 0.583333 26.6492 0.2 28.2992 0.2C29.9492 0.2 31.4576 0.583333 32.8242 1.35C34.2076 2.11667 35.2909 3.18333 36.0742 4.55C36.8742 5.91667 37.2742 7.45833 37.2742 9.175C37.2742 10.8917 36.8742 12.4417 36.0742 13.825C35.2742 15.1917 34.1909 16.2583 32.8242 17.025C31.4576 17.7917 29.9492 18.175 28.2992 18.175ZM28.2992 14.275C29.6992 14.275 30.8159 13.8083 31.6492 12.875C32.4992 11.9417 32.9242 10.7083 32.9242 9.175C32.9242 7.625 32.4992 6.39167 31.6492 5.475C30.8159 4.54167 29.6992 4.075 28.2992 4.075C26.8826 4.075 25.7492 4.53333 24.8992 5.45C24.0659 6.36667 23.6492 7.60833 23.6492 9.175C23.6492 10.725 24.0659 11.9667 24.8992 12.9C25.7492 13.8167 26.8826 14.275 28.2992 14.275ZM55.3525 18H51.0775L43.9275 7.175V18H39.6525V0.449999H43.9275L51.0775 11.325V0.449999H55.3525V18ZM64.8014 18.175C63.518 18.175 62.368 17.9667 61.3514 17.55C60.3347 17.1333 59.518 16.5167 58.9014 15.7C58.3014 14.8833 57.9847 13.9 57.9514 12.75H62.5014C62.568 13.4 62.793 13.9 63.1764 14.25C63.5597 14.5833 64.0597 14.75 64.6764 14.75C65.3097 14.75 65.8097 14.6083 66.1764 14.325C66.543 14.025 66.7264 13.6167 66.7264 13.1C66.7264 12.6667 66.5764 12.3083 66.2764 12.025C65.993 11.7417 65.6347 11.5083 65.2014 11.325C64.7847 11.1417 64.1847 10.9333 63.4014 10.7C62.268 10.35 61.343 10 60.6264 9.65C59.9097 9.3 59.293 8.78333 58.7764 8.1C58.2597 7.41667 58.0014 6.525 58.0014 5.425C58.0014 3.79167 58.593 2.51667 59.7764 1.6C60.9597 0.666666 62.5014 0.2 64.4014 0.2C66.3347 0.2 67.893 0.666666 69.0764 1.6C70.2597 2.51667 70.893 3.8 70.9764 5.45H66.3514C66.318 4.88333 66.1097 4.44167 65.7264 4.125C65.343 3.79167 64.8514 3.625 64.2514 3.625C63.7347 3.625 63.318 3.76667 63.0014 4.05C62.6847 4.31667 62.5264 4.70833 62.5264 5.225C62.5264 5.79167 62.793 6.23333 63.3264 6.55C63.8597 6.86667 64.693 7.20833 65.8264 7.575C66.9597 7.95833 67.8764 8.325 68.5764 8.675C69.293 9.025 69.9097 9.53333 70.4264 10.2C70.943 10.8667 71.2014 11.725 71.2014 12.775C71.2014 13.775 70.943 14.6833 70.4264 15.5C69.9264 16.3167 69.193 16.9667 68.2264 17.45C67.2597 17.9333 66.118 18.175 64.8014 18.175ZM78.0322 0.449999V10.95C78.0322 12 78.2906 12.8083 78.8072 13.375C79.3239 13.9417 80.0822 14.225 81.0822 14.225C82.0822 14.225 82.8489 13.9417 83.3822 13.375C83.9156 12.8083 84.1822 12 84.1822 10.95V0.449999H88.4572V10.925C88.4572 12.4917 88.1239 13.8167 87.4572 14.9C86.7906 15.9833 85.8906 16.8 84.7572 17.35C83.6406 17.9 82.3906 18.175 81.0072 18.175C79.6239 18.175 78.3822 17.9083 77.2822 17.375C76.1989 16.825 75.3406 16.0083 74.7072 14.925C74.0739 13.825 73.7572 12.4917 73.7572 10.925V0.449999H78.0322ZM95.7342 14.7H101.334V18H91.4592V0.449999H95.7342V14.7ZM115.998 0.449999V3.875H111.348V18H107.073V3.875H102.423V0.449999H115.998Z" fill="#7C99E4"/>
</svg>
