<svg width="229" height="172" viewBox="0 0 229 172" fill="none" xmlns="http://www.w3.org/2000/svg">
<g clip-path="url(#clip0_5_71)">
<path d="M107.385 166.766C107.385 169.395 83.3158 169.675 53.6924 171.526C24.0967 173.375 0 169.395 0 166.766C0 164.138 24.2077 158.848 53.6924 162.007C83.3158 165.18 107.385 164.138 107.385 166.766Z" fill="#E6E6E6"/>
<path d="M220.6 0.000286753H156.959C153.887 0.000283416 150.908 1.04487 148.509 2.96232C146.111 4.87978 144.436 7.55601 143.761 10.5511L111.604 153.148C111.253 154.703 111.247 156.317 111.586 157.875C111.925 159.433 112.6 160.898 113.565 162.167C114.53 163.436 115.762 164.479 117.172 165.223C118.583 165.966 120.14 166.392 121.733 166.47L187.156 169.693C190.66 169.866 194.106 168.758 196.853 166.577C199.599 164.396 201.458 161.29 202.082 157.839L220.323 57.0218L221.68 57.4095L225.171 38.3008L223.774 37.9516L228.866 9.80983C229.084 8.60446 229.033 7.36584 228.717 6.18225C228.402 4.99867 227.829 3.89927 227.039 2.96243C226.25 2.0256 225.264 1.2744 224.151 0.762387C223.038 0.250374 221.825 -0.00984406 220.6 0.000284736L220.6 0.000286753Z" fill="#3F3D56"/>
<path d="M165.337 3.0743H157.908C155.775 3.0743 153.705 3.80375 152.044 5.14156C150.382 6.47937 149.228 8.34507 148.773 10.4289L117.907 151.862C117.729 152.677 117.73 153.52 117.908 154.334C118.086 155.148 118.437 155.914 118.939 156.58C119.44 157.246 120.079 157.796 120.813 158.192C121.546 158.589 122.357 158.822 123.188 158.876L188.401 163.149C190.24 163.27 192.06 162.709 193.513 161.574C194.965 160.438 195.949 158.808 196.275 156.994L222.614 10.8088C222.784 9.86266 222.745 8.89062 222.499 7.96129C222.252 7.03197 221.805 6.16802 221.188 5.43041C220.571 4.6928 219.8 4.09951 218.929 3.6924C218.058 3.2853 217.108 3.0743 216.146 3.0743H209.099C208.417 3.0743 207.754 3.2991 207.212 3.71391C206.671 4.12871 206.281 4.71037 206.104 5.36884C205.947 5.95016 205.604 6.46367 205.126 6.82986C204.648 7.19606 204.062 7.39452 203.46 7.39452H170.003C168.824 7.39452 167.688 6.94955 166.823 6.14858C165.958 5.34761 165.427 4.24967 165.337 3.0743V3.0743Z" fill="white"/>
<path d="M95.5326 75.8231L101.282 87.2033L118.475 95.0172C120.311 98.1192 126.145 98.3567 126.569 96.3506C127.045 94.1002 119.485 90.4781 119.485 90.4781L105.105 80.7541L103.846 72.3831L95.5326 75.8231Z" fill="#A0616A"/>
<path d="M96.2108 152.193L95.1504 160.674L101.301 161.099L101.937 152.193H96.2108Z" fill="#A0616A"/>
<path d="M97.0592 159.402C96.5094 158.821 96.0022 158.201 95.5416 157.547C94.6601 156.327 93.878 162.583 93.878 162.583C93.878 162.583 93.0297 165.127 93.2418 166.399C93.4539 167.671 98.3317 167.671 99.18 167.459C100.028 167.247 104.27 167.459 104.27 167.459H110.632C116.146 164.915 110.632 163.219 110.632 163.219C108.936 163.007 103.209 157.706 103.209 157.706L101.937 155.374C101.089 155.162 100.24 158.342 100.24 158.342L97.0592 159.402Z" fill="#2F2E41"/>
<path d="M80.3051 152.299L79.2445 160.78L85.3948 161.205L86.0312 152.299H80.3051Z" fill="#A0616A"/>
<path d="M81.1533 159.508C80.6035 158.927 80.0963 158.307 79.6357 157.653C78.7543 156.433 77.9721 162.689 77.9721 162.689C77.9721 162.689 77.1238 165.021 77.3359 166.293C77.548 167.565 82.4258 167.565 83.2741 167.353C84.1224 167.141 88.364 167.565 88.364 167.565H94.7263C100.24 165.021 94.7263 163.325 94.7263 163.325C93.0297 163.113 87.3036 157.812 87.3036 157.812L86.0311 155.48C85.1828 155.268 84.3345 158.448 84.3345 158.448L81.1533 159.508Z" fill="#2F2E41"/>
<path d="M87.3036 97.5975C86.4553 98.6576 86.8795 102.262 86.8795 102.262C86.8795 102.262 85.3949 113.923 86.0312 114.983C86.6674 116.044 85.607 116.892 84.9708 118.376C84.3345 119.86 83.6983 123.464 83.6983 123.464C80.093 126.433 80.3051 140.002 80.3051 140.002L79.0326 152.087C79.4567 153.36 85.3949 153.572 86.2432 153.36C87.0915 153.148 89.6365 134.065 89.6365 134.065L95.3626 123.252C95.3626 123.252 94.9384 152.087 94.9384 153.36C94.9384 154.632 100.664 153.996 101.937 153.996C103.209 153.996 103.209 132.793 103.209 132.793L104.482 127.281L111.268 102.05V99.0816L110.208 97.5975C110.208 97.5975 88.152 96.5374 87.3036 97.5975Z" fill="#2F2E41"/>
<path d="M96.6351 49.4682C100.266 49.4682 103.209 46.5254 103.209 42.8954C103.209 39.2654 100.266 36.3227 96.6351 36.3227C93.0041 36.3227 90.0607 39.2654 90.0607 42.8954C90.0607 46.5254 93.0041 49.4682 96.6351 49.4682Z" fill="#A0616A"/>
<path d="M99.9222 45.9698C98.5896 48.9365 99.3787 53.0803 102.043 57.631L91.2271 52.5425L92.9237 51.0583L92.4995 46.8178L99.9222 45.9698Z" fill="#A0616A"/>
<path d="M99.9222 52.7546C101.339 53.5964 102.186 55.1431 102.672 56.717C103.573 59.631 104.115 62.6438 104.286 65.6888L104.8 74.805L111.162 98.9756C105.648 103.64 102.467 102.58 95.0444 98.7636C87.6217 94.9472 86.7734 100.036 86.7734 100.036C86.7734 100.036 86.1372 99.8237 86.7734 99.1877C87.4097 98.5516 86.7734 99.1877 86.1372 98.5516C85.501 97.9155 86.1372 98.5516 86.3493 97.9155C86.5613 97.2794 86.3493 97.7035 86.1372 97.4915C85.9251 97.2794 86.9855 95.3712 86.9855 95.3712L85.2889 79.4695L83.1681 56.995C85.713 53.8146 92.9237 51.0583 92.9237 51.0583L99.4981 55.7228C101.619 56.5709 99.9222 53.1786 99.9222 53.1786L99.9222 52.7546Z" fill="#7C99E4"/>
<path d="M79.6689 70.4584L78.8206 83.1798L89.6365 98.6576C89.6365 102.262 91.5452 103.11 91.5452 103.11C92.2681 101.957 92.9061 100.752 93.4539 99.5056C94.5143 97.1734 92.8177 95.2652 92.8177 95.2652L85.395 79.5754L88.5761 71.7306L79.6689 70.4584Z" fill="#A0616A"/>
<path d="M83.2741 57.101C79.6688 58.3731 79.0326 72.1546 79.0326 72.1546C83.2741 69.8224 88.364 73.6388 88.364 73.6388C88.364 73.6388 89.4244 70.0344 90.6969 65.3699C91.0811 64.0579 91.127 62.6699 90.8303 61.3354C90.5337 60.0008 89.9041 58.7629 89.0002 57.7371C89.0002 57.7371 86.8795 55.8289 83.2741 57.101Z" fill="#7C99E4"/>
<path d="M90.5908 44.9096C91.4277 44.2402 92.5695 45.457 92.5695 45.457L93.2391 39.4325C93.2391 39.4325 97.4239 39.9345 100.102 39.2651C102.78 38.5957 103.199 41.6917 103.199 41.6917C103.337 40.4414 103.365 39.1815 103.283 37.9264C103.115 36.4202 100.939 34.9141 97.0891 33.91C93.2391 32.9059 91.2304 37.257 91.2304 37.257C88.5522 38.5958 89.7538 45.579 90.5908 44.9096Z" fill="#2F2E41"/>
<path d="M202.345 101.948C202.472 101.953 202.598 101.912 202.698 101.833C202.798 101.753 202.866 101.641 202.891 101.515L217.513 21.9449C217.527 21.8692 217.524 21.7913 217.505 21.7167C217.486 21.6422 217.45 21.5727 217.401 21.5133C217.353 21.4538 217.291 21.4058 217.222 21.3725C217.152 21.3392 217.076 21.3214 216.999 21.3205L150.472 20.5457H150.466C150.346 20.5461 150.229 20.5872 150.136 20.6622C150.042 20.7373 149.976 20.8418 149.95 20.9589L132.711 97.9467C132.695 98.0219 132.694 98.0998 132.711 98.1751C132.727 98.2504 132.76 98.3212 132.807 98.3825C132.854 98.4438 132.913 98.4942 132.981 98.53C133.05 98.5659 133.125 98.5864 133.202 98.5902L202.345 101.948Z" fill="#E6E6E6"/>
<path d="M144.449 107.031C144.389 107.031 144.331 107.051 144.284 107.089C144.238 107.126 144.205 107.178 144.191 107.236L143.577 109.868C143.568 109.906 143.568 109.944 143.576 109.982C143.583 110.019 143.599 110.055 143.622 110.085C143.644 110.116 143.673 110.142 143.707 110.16C143.741 110.178 143.778 110.189 143.816 110.192L178.525 112.659C178.59 112.663 178.653 112.643 178.705 112.604C178.756 112.565 178.791 112.508 178.804 112.445L179.395 109.399C179.402 109.362 179.401 109.324 179.392 109.288C179.384 109.251 179.367 109.217 179.344 109.187C179.321 109.157 179.292 109.133 179.259 109.115C179.225 109.098 179.188 109.087 179.151 109.085L144.465 107.032C144.459 107.031 144.454 107.031 144.449 107.031Z" fill="#E6E6E6"/>
<path d="M186.619 122.44C186.681 122.445 186.743 122.428 186.794 122.391C186.845 122.354 186.881 122.301 186.897 122.24L187.649 119.188C187.658 119.15 187.659 119.111 187.651 119.073C187.644 119.035 187.628 119 187.605 118.969C187.583 118.937 187.553 118.912 187.52 118.893C187.486 118.874 187.449 118.863 187.41 118.86L143.084 115.761C143.024 115.756 142.964 115.773 142.915 115.807C142.865 115.841 142.829 115.892 142.812 115.95L142.031 118.587C142.02 118.625 142.017 118.665 142.023 118.704C142.029 118.742 142.044 118.779 142.066 118.812C142.088 118.844 142.118 118.871 142.152 118.891C142.186 118.911 142.224 118.923 142.263 118.926L186.619 122.44Z" fill="#E6E6E6"/>
<path d="M184.238 132.224C184.301 132.229 184.363 132.212 184.414 132.175C184.465 132.138 184.501 132.085 184.516 132.024L185.268 128.971C185.277 128.934 185.278 128.895 185.271 128.857C185.263 128.819 185.248 128.783 185.225 128.752C185.202 128.721 185.173 128.695 185.139 128.677C185.105 128.658 185.068 128.647 185.03 128.644L140.704 125.545C140.644 125.54 140.584 125.556 140.534 125.591C140.485 125.625 140.448 125.675 140.432 125.733L139.65 128.371C139.639 128.409 139.636 128.448 139.642 128.487C139.649 128.526 139.663 128.563 139.686 128.596C139.708 128.628 139.737 128.655 139.771 128.675C139.805 128.695 139.843 128.706 139.883 128.71L184.238 132.224Z" fill="#E6E6E6"/>
<path d="M163.823 149.008C163.887 149.015 163.95 148.998 164.002 148.962C164.054 148.925 164.09 148.871 164.105 148.809L165.695 142.449C165.705 142.412 165.706 142.373 165.699 142.336C165.691 142.298 165.676 142.262 165.654 142.231C165.632 142.2 165.603 142.174 165.569 142.155C165.536 142.136 165.499 142.125 165.461 142.121L138.24 139.833C138.177 139.828 138.114 139.847 138.062 139.884C138.011 139.922 137.975 139.977 137.96 140.039L136.603 146.142C136.595 146.179 136.595 146.217 136.602 146.254C136.61 146.29 136.625 146.325 136.647 146.355C136.67 146.386 136.698 146.411 136.73 146.43C136.763 146.448 136.799 146.46 136.837 146.463L163.823 149.008Z" fill="#7C99E4"/>
</g>
<defs>
<clipPath id="clip0_5_71">
<rect width="229" height="172" fill="white"/>
</clipPath>
</defs>
</svg>
